<svg viewBox="103 104 1010 404" xmlns="http://www.w3.org/2000/svg">
  <path fill="hsl(30, 56%, 14%)"
        d="M  135 392
           C  144.05  308.85  153.10  225.71  190     213
              226.89  200.28  291.63  257.98  321.99  297
              352.36  336.01  348.34  356.33  356.00  363
              363.65  369.66  382.97  362.67  379.00  354.00
              375.02  345.32  347.75  334.96  354.00  323.00
              360.24  311.03  400.02  297.44  428.00  312.00
              455.97  326.55  472.16  369.24  495.07  382.03
              517.98  394.83  547.60  377.74  617.10  310.05
              686.60  242.37  795.96  124.11  823.12  111.07
              850.29   98.03  795.26  190.22  788.12  250.07
              780.98  309.92  821.74  337.44  874.12  310.07
              926.50  282.71  990.51  200.45 1040.12  222.07
             1089.72  243.69 1124.93  369.18 1102.12  431.07
             1079.30  492.96  998.47  491.25  948.12  482.08
              897.77  472.91  877.91  456.27  892.12  447.07
              906.34  437.87  954.62  436.10  957.14  426.05
              959.66  415.99  916.42  397.65  889.14  398.05
              861.87  398.46  850.56  417.62  851.15  430.05
              851.75  442.48  864.23  448.19  864.16  455.06
              864.08  461.93  851.43  469.96  825.15  479.08
              798.87  488.20  758.95  498.40  737.13  487.09
              715.30  475.78  711.58  442.97  692.11  434.09
              672.64  425.20  637.43  440.24  638.11  426.08
              638.79  411.92  675.37  368.56  702.11  323.06
              728.85  277.57  745.76  229.93  724.10  257.06
              702.44  284.19  642.20  386.09  594.10  423.09
              546.00  460.09  510.04  432.20  478.09  435.09
              446.14  437.98  418.20  471.64  384.08  482.09
              349.95  492.54  309.65  479.78  281.07  483.08
              252.50  486.38  235.66  505.74  239.05  474.04
              242.43  442.33  266.05  359.56  259.99  302.99
              253.94  246.43  218.22  216.09  209.99  263.99
              201.77  311.90  221.04  438.06  221     479
              220.95  519.93  201.58  475.65  176.00  470.99
              150.41  466.34  118.61  501.32  110.00  503
              101.38  504.67  115.96  473.05  124     449
              132.03  424.94  133.51  408.47  135     392"/>
</svg>
